<svg width="321" height="92" viewBox="0 0 321 92" fill="none" xmlns="http://www.w3.org/2000/svg">
<path d="M13.056 24.928C12.928 24.48 12.816 23.968 12.72 23.392C12.656 22.784 12.624 21.904 12.624 20.752C12.624 20.016 12.64 19.28 12.672 18.544C12.704 17.776 12.848 17.12 13.104 16.576C14.672 16.864 16.336 17.136 18.096 17.392C19.888 17.616 21.712 17.824 23.568 18.016C25.424 18.208 27.28 18.368 29.136 18.496C30.992 18.592 32.784 18.64 34.512 18.64C36.88 18.64 38.784 18.544 40.224 18.352C40.736 19.056 41.056 19.888 41.184 20.848C41.312 21.808 41.376 22.704 41.376 23.536C37.696 25.04 34.208 26.96 30.912 29.296C27.616 31.6 24.624 34.016 21.936 36.544C19.248 39.072 16.928 41.568 14.976 44.032C13.024 46.496 11.568 48.64 10.608 50.464C11.184 50.368 11.776 50.288 12.384 50.224C12.992 50.128 13.648 50.048 14.352 49.984C15.056 49.92 15.84 49.856 16.704 49.792C17.568 49.728 18.56 49.664 19.68 49.6C21.248 49.504 22.624 49.344 23.808 49.12C24.992 48.864 26 48.608 26.832 48.352C27.664 48.064 28.32 47.808 28.8 47.584C29.312 47.328 29.68 47.12 29.904 46.96C30.032 47.248 30.176 47.68 30.336 48.256C30.528 48.832 30.688 49.472 30.816 50.176C30.976 50.848 31.104 51.536 31.2 52.24C31.296 52.976 31.344 53.648 31.344 54.256C31.344 54.576 31.328 54.784 31.296 54.88C31.296 55.008 31.28 55.136 31.248 55.264C29.808 55.168 28.352 55.056 26.88 54.928C25.44 54.8 24 54.736 22.56 54.736C20.64 54.736 18.64 54.832 16.56 55.024C14.512 55.248 12.528 55.568 10.608 55.984C8.72 56.432 6.976 56.992 5.376 57.664C3.808 58.336 2.544 59.136 1.584 60.064C1.328 59.232 1.056 58.512 0.768 57.904C0.512 57.328 0.384 56.624 0.384 55.792C0.384 54.96 0.544 54.288 0.864 53.776C1.216 53.296 1.68 52.896 2.256 52.576C4.176 49.824 6.352 47.104 8.784 44.416C11.248 41.696 13.872 39.072 16.656 36.544C19.44 34.016 22.32 31.616 25.296 29.344C28.272 27.04 31.248 24.944 34.224 23.056C32.304 22.96 30.272 22.912 28.128 22.912C26.624 22.912 25.136 22.944 23.664 23.008C22.192 23.072 20.8 23.184 19.488 23.344C18.176 23.472 16.96 23.68 15.84 23.968C14.752 24.224 13.824 24.544 13.056 24.928ZM54.7931 32.128C54.6651 34.112 54.3131 35.824 53.7371 37.264C53.1611 38.672 52.3291 39.92 51.2411 41.008C50.1851 42.064 48.8891 43.024 47.3531 43.888C45.8171 44.752 44.0251 45.584 41.9771 46.384C41.9771 46.576 41.9611 46.784 41.9291 47.008C41.9291 47.2 41.9291 47.408 41.9291 47.632C41.9291 48.048 41.9611 48.48 42.0251 48.928C42.0891 49.376 42.2011 49.792 42.3611 50.176C42.5211 50.56 42.7451 50.88 43.0331 51.136C43.3211 51.36 43.6891 51.472 44.1371 51.472C45.0011 51.472 45.8491 51.28 46.6811 50.896C47.5131 50.512 48.2971 50.048 49.0331 49.504C49.8011 48.928 50.5051 48.32 51.1451 47.68C51.8171 47.008 52.4091 46.4 52.9211 45.856C53.2411 46.144 53.5131 46.416 53.7371 46.672C52.2971 48.592 50.7131 50.192 48.9851 51.472C47.2891 52.72 45.6731 53.52 44.1371 53.872C41.9291 53.616 40.2011 52.816 38.9531 51.472C37.7371 50.096 37.1291 48.448 37.1291 46.528C37.1291 45.216 37.3051 43.888 37.6571 42.544C38.0411 41.168 38.5531 39.856 39.1931 38.608C39.8651 37.328 40.6331 36.128 41.4971 35.008C42.3931 33.888 43.3371 32.912 44.3291 32.08C45.3531 31.248 46.3931 30.592 47.4491 30.112C48.5371 29.632 49.6091 29.392 50.6651 29.392C52.1371 29.584 53.5131 30.496 54.7931 32.128ZM51.4811 33.712C50.6171 33.84 49.7211 34.192 48.7931 34.768C47.8651 35.344 46.9851 36.112 46.1531 37.072C45.3531 38.032 44.6171 39.152 43.9451 40.432C43.2731 41.712 42.7451 43.088 42.3611 44.56C44.9211 43.28 47.0491 41.712 48.7451 39.856C50.4411 37.968 51.3531 35.92 51.4811 33.712ZM55.8634 51.04C56.0234 50.112 56.2954 48.896 56.6794 47.392C57.0954 45.856 57.5754 44.24 58.1194 42.544C58.6634 40.816 59.2394 39.088 59.8474 37.36C60.4554 35.632 61.0474 34.08 61.6234 32.704C62.0394 31.712 62.4074 30.944 62.7274 30.4C63.0474 29.824 63.3994 29.344 63.7834 28.96C64.2314 29.024 64.6954 29.136 65.1754 29.296C65.6554 29.456 66.1194 29.648 66.5674 29.872C67.0154 30.096 67.4154 30.336 67.7674 30.592C68.1194 30.816 68.3914 31.04 68.5834 31.264C67.7194 32.288 66.9514 33.456 66.2794 34.768C65.6394 36.08 64.9834 37.76 64.3114 39.808C66.0394 38.272 67.5594 36.8 68.8714 35.392C70.2154 33.984 71.4634 32.416 72.6154 30.688C72.8074 30.528 73.1434 30.448 73.6234 30.448C74.0714 30.448 74.5034 30.528 74.9194 30.688C75.3354 30.816 75.6234 31.008 75.7834 31.264C75.2074 32.8 74.9194 34.32 74.9194 35.824C74.9194 37.232 75.1274 38.288 75.5434 38.992C75.5114 39.184 75.2874 39.552 74.8714 40.096C74.4874 40.64 74.0554 41.152 73.5754 41.632C72.7114 41.184 71.9434 40.576 71.2714 39.808C70.5994 39.008 70.1034 38.144 69.7834 37.216C68.2794 38.272 66.9994 39.312 65.9434 40.336C64.8874 41.328 63.9754 42.448 63.2074 43.696C62.4714 44.912 61.8314 46.32 61.2874 47.92C60.7754 49.52 60.2794 51.424 59.7994 53.632C59.5114 53.6 59.1594 53.488 58.7434 53.296C58.3594 53.136 57.9594 52.928 57.5434 52.672C57.1594 52.416 56.8074 52.144 56.4874 51.856C56.1674 51.568 55.9594 51.296 55.8634 51.04ZM82.0388 53.68C80.2148 53.488 78.7588 52.688 77.6708 51.28C76.5828 49.872 76.0388 48.08 76.0388 45.904C76.0388 44.624 76.2308 43.296 76.6148 41.92C76.9988 40.544 77.5428 39.216 78.2468 37.936C78.9508 36.624 79.7828 35.392 80.7428 34.24C81.7028 33.088 82.7428 32.096 83.8628 31.264C85.6228 29.952 87.2708 29.296 88.8068 29.296C89.8308 29.84 90.8388 30.976 91.8308 32.704C91.9908 32.704 92.1348 32.704 92.2628 32.704C92.3908 32.672 92.5348 32.656 92.6948 32.656C94.3908 32.656 95.2388 34.16 95.2388 37.168C95.2388 39.184 94.9028 41.104 94.2308 42.928C93.5908 44.72 92.6788 46.352 91.4948 47.824C90.3428 49.296 88.9508 50.544 87.3188 51.568C85.7188 52.56 83.9588 53.264 82.0388 53.68ZM84.4868 38.56C83.9428 39.296 83.4308 40.096 82.9508 40.96C82.4708 41.824 82.0548 42.704 81.7028 43.6C81.3508 44.464 81.0788 45.312 80.8868 46.144C80.6948 46.944 80.5988 47.664 80.5988 48.304C80.5988 49.072 80.7268 49.808 80.9828 50.512C81.2388 51.216 81.5268 51.616 81.8468 51.712C83.2868 51.392 84.5988 50.8 85.7828 49.936C86.9988 49.04 88.0388 47.936 88.9028 46.624C89.7988 45.312 90.4868 43.824 90.9668 42.16C91.4788 40.496 91.7348 38.72 91.7348 36.832C91.7348 36 91.6868 35.344 91.5908 34.864C91.4948 34.384 91.3348 33.968 91.1108 33.616C89.7028 34.032 88.4388 34.704 87.3188 35.632C86.2308 36.56 85.2868 37.536 84.4868 38.56ZM102.698 43.072C101.706 43.072 100.906 42.8 100.298 42.256C99.7223 41.68 99.4343 40.896 99.4343 39.904C99.4343 39.744 99.4663 39.504 99.5303 39.184C99.5943 38.864 99.6583 38.624 99.7223 38.464C100.266 38.56 100.778 38.624 101.258 38.656C101.738 38.656 102.362 38.656 103.13 38.656C104.762 38.656 106.282 38.608 107.69 38.512C109.13 38.416 110.426 38.304 111.578 38.176C112.73 38.048 113.722 37.936 114.554 37.84C115.386 37.744 116.026 37.696 116.474 37.696C117.082 37.696 117.61 38.064 118.058 38.8C118.538 39.536 118.89 40.592 119.114 41.968C118.314 41.872 117.658 41.808 117.146 41.776C116.634 41.744 116.186 41.728 115.802 41.728C114.426 41.728 113.146 41.808 111.962 41.968C110.778 42.096 109.658 42.24 108.602 42.4C107.546 42.56 106.538 42.72 105.578 42.88C104.618 43.008 103.658 43.072 102.698 43.072ZM134.204 36.784C136.188 33.84 138.14 31.136 140.06 28.672C142.012 26.176 143.868 24.032 145.628 22.24C147.388 20.448 149.004 19.056 150.476 18.064C151.948 17.072 153.228 16.576 154.316 16.576C154.732 16.576 155.18 16.736 155.66 17.056C156.172 17.376 156.636 17.792 157.052 18.304C157.5 18.816 157.868 19.376 158.156 19.984C158.444 20.56 158.588 21.12 158.588 21.664C156.604 22.304 154.652 23.152 152.732 24.208C150.844 25.232 149.02 26.432 147.26 27.808C145.532 29.152 143.868 30.656 142.268 32.32C140.7 33.984 139.276 35.76 137.996 37.648C138.508 38.96 139.132 40.368 139.868 41.872C140.636 43.344 141.468 44.784 142.364 46.192C143.26 47.568 144.22 48.848 145.244 50.032C146.268 51.216 147.308 52.16 148.364 52.864C148.204 53.216 147.932 53.552 147.548 53.872C147.164 54.192 146.748 54.48 146.3 54.736C145.852 55.024 145.372 55.248 144.86 55.408C144.38 55.568 143.932 55.648 143.516 55.648C142.684 55.648 141.916 55.248 141.212 54.448C140.508 53.68 139.788 52.512 139.052 50.944C138.348 49.344 137.596 47.376 136.796 45.04C136.028 42.672 135.164 39.92 134.204 36.784ZM126.956 55.888C125.74 55.6 124.732 55.088 123.932 54.352C123.132 53.648 122.396 52.752 121.724 51.664C122.012 51.056 122.348 50.256 122.732 49.264C123.148 48.272 123.644 47.056 124.22 45.616C124.796 44.144 125.484 42.4 126.284 40.384C127.084 38.336 128.012 35.952 129.068 33.232C129.74 31.504 130.284 30.048 130.7 28.864C131.148 27.68 131.516 26.528 131.804 25.408C132.124 24.256 132.428 22.992 132.716 21.616C133.004 20.24 133.34 18.496 133.724 16.384C135.068 16.64 136.284 17.232 137.372 18.16C138.492 19.088 139.452 20.208 140.252 21.52C139.9 21.968 139.484 22.656 139.004 23.584C138.556 24.48 138.044 25.568 137.468 26.848C136.892 28.128 136.252 29.552 135.548 31.12C134.844 32.688 134.108 34.352 133.34 36.112C131.612 39.952 130.252 43.472 129.26 46.672C128.268 49.84 127.5 52.912 126.956 55.888ZM160.088 28.72C160.92 28.976 161.704 29.552 162.44 30.448C163.176 31.312 163.72 32.272 164.072 33.328C163.72 34.192 163.176 35.232 162.44 36.448C161.704 37.664 160.968 38.912 160.232 40.192C159.496 41.44 158.824 42.64 158.216 43.792C157.64 44.912 157.304 45.84 157.208 46.576C157.72 46.032 158.28 45.408 158.888 44.704C159.528 43.968 160.136 43.248 160.712 42.544C161.32 41.808 161.88 41.152 162.392 40.576C162.904 39.968 163.304 39.52 163.592 39.232C164.2 38.592 164.92 37.856 165.752 37.024C166.584 36.16 167.448 35.36 168.344 34.624C169.272 33.856 170.2 33.216 171.128 32.704C172.056 32.16 172.904 31.888 173.672 31.888C174.504 31.888 175.192 32.176 175.736 32.752C176.312 33.296 176.76 33.872 177.08 34.48C177.08 34.544 176.952 34.64 176.696 34.768C176.472 34.864 176.136 35.168 175.688 35.68C175.24 36.256 174.728 37.056 174.152 38.08C173.608 39.072 173.064 40.16 172.52 41.344C172.008 42.496 171.576 43.68 171.224 44.896C170.872 46.112 170.696 47.216 170.696 48.208C170.696 49.008 170.792 49.52 170.984 49.744C171.208 49.968 171.512 50.08 171.896 50.08C172.248 50.08 172.616 50 173 49.84C173.384 49.68 173.688 49.6 173.912 49.6C174.04 49.664 174.136 49.808 174.2 50.032C174.296 50.224 174.344 50.4 174.344 50.56C174.088 50.784 173.784 51.008 173.432 51.232C173.08 51.456 172.712 51.664 172.328 51.856C171.944 52.048 171.56 52.208 171.176 52.336C170.824 52.464 170.504 52.528 170.216 52.528C169.288 52.528 168.52 52.384 167.912 52.096C167.336 51.84 166.872 51.488 166.52 51.04C166.2 50.592 165.976 50.064 165.848 49.456C165.72 48.816 165.656 48.144 165.656 47.44C165.656 47.056 165.688 46.624 165.752 46.144C165.816 45.664 165.944 45.104 166.136 44.464C166.328 43.792 166.6 43.008 166.952 42.112C167.304 41.184 167.752 40.08 168.296 38.8C168.232 38.8 167.8 39.024 167 39.472C166.2 39.92 165.336 40.608 164.408 41.536C162.904 42.976 161.544 44.4 160.328 45.808C159.144 47.216 157.928 48.784 156.68 50.512C155.976 51.504 155.352 52.336 154.808 53.008C154.296 53.712 153.848 54.176 153.464 54.4C152.792 54.016 152.296 53.472 151.976 52.768C151.656 52.096 151.416 51.392 151.256 50.656C151.256 50.048 151.336 49.28 151.496 48.352C151.688 47.424 151.928 46.4 152.216 45.28C152.536 44.128 152.92 42.928 153.368 41.68C153.816 40.432 154.312 39.184 154.856 37.936C156.072 35.12 157.176 32.912 158.168 31.312C159.192 29.712 159.832 28.848 160.088 28.72ZM183.898 53.68C182.074 53.488 180.618 52.688 179.53 51.28C178.442 49.872 177.898 48.08 177.898 45.904C177.898 44.624 178.09 43.296 178.474 41.92C178.858 40.544 179.402 39.216 180.106 37.936C180.81 36.624 181.642 35.392 182.602 34.24C183.562 33.088 184.602 32.096 185.722 31.264C187.482 29.952 189.13 29.296 190.666 29.296C191.69 29.84 192.698 30.976 193.69 32.704C193.85 32.704 193.994 32.704 194.122 32.704C194.25 32.672 194.394 32.656 194.554 32.656C196.25 32.656 197.098 34.16 197.098 37.168C197.098 39.184 196.762 41.104 196.09 42.928C195.45 44.72 194.538 46.352 193.354 47.824C192.202 49.296 190.81 50.544 189.178 51.568C187.578 52.56 185.818 53.264 183.898 53.68ZM186.346 38.56C185.802 39.296 185.29 40.096 184.81 40.96C184.33 41.824 183.914 42.704 183.562 43.6C183.21 44.464 182.938 45.312 182.746 46.144C182.554 46.944 182.458 47.664 182.458 48.304C182.458 49.072 182.586 49.808 182.842 50.512C183.098 51.216 183.386 51.616 183.706 51.712C185.146 51.392 186.458 50.8 187.642 49.936C188.858 49.04 189.898 47.936 190.762 46.624C191.658 45.312 192.346 43.824 192.826 42.16C193.338 40.496 193.594 38.72 193.594 36.832C193.594 36 193.546 35.344 193.45 34.864C193.354 34.384 193.194 33.968 192.97 33.616C191.562 34.032 190.298 34.704 189.178 35.632C188.09 36.56 187.146 37.536 186.346 38.56ZM199.854 50.032C199.854 49.392 199.918 48.496 200.046 47.344C200.206 46.192 200.398 44.944 200.622 43.6C200.878 42.256 201.15 40.88 201.438 39.472C201.758 38.064 202.078 36.8 202.398 35.68C202.814 34.176 203.454 33.024 204.318 32.224C205.214 31.392 206.318 30.976 207.63 30.976C208.334 30.976 209.022 31.088 209.694 31.312C210.398 31.536 210.814 31.824 210.942 32.176C210.014 32.944 209.262 33.904 208.686 35.056C208.142 36.176 207.694 37.392 207.342 38.704C207.022 39.984 206.766 41.312 206.574 42.688C206.414 44.032 206.238 45.296 206.046 46.48C207.102 45.072 208.094 43.808 209.022 42.688C209.982 41.536 210.83 40.624 211.566 39.952C212.558 39.024 213.23 38.256 213.582 37.648C213.934 37.008 214.238 36.32 214.494 35.584C214.686 35.008 214.91 34.336 215.166 33.568C215.454 32.8 215.918 32.096 216.558 31.456C216.686 31.424 216.958 31.408 217.374 31.408C217.694 31.408 218.03 31.424 218.382 31.456C218.766 31.488 219.118 31.552 219.438 31.648C219.758 31.744 220.03 31.856 220.254 31.984C220.478 32.112 220.606 32.272 220.638 32.464C220.126 33.136 219.646 34.192 219.198 35.632C218.75 37.04 218.35 38.592 217.998 40.288C217.646 41.984 217.326 43.68 217.038 45.376C216.75 47.04 216.494 48.448 216.27 49.6C216.398 49.536 216.686 49.28 217.134 48.832C217.582 48.384 218.078 47.824 218.622 47.152C219.198 46.48 219.79 45.744 220.398 44.944C221.038 44.144 221.598 43.36 222.078 42.592C222.686 41.664 223.182 40.8 223.566 40C223.982 39.168 224.334 38.288 224.622 37.36C224.942 36.432 225.23 35.408 225.486 34.288C225.742 33.136 226.014 31.776 226.302 30.208C226.494 29.952 226.91 29.744 227.55 29.584C228.222 29.392 228.83 29.296 229.374 29.296C229.854 29.296 230.206 29.376 230.43 29.536C230.27 31.328 229.966 32.928 229.518 34.336C229.102 35.744 228.526 37.12 227.79 38.464C227.054 39.776 226.142 41.104 225.054 42.448C223.966 43.76 222.686 45.2 221.214 46.768C220.606 47.408 219.934 48.112 219.198 48.88C218.494 49.648 217.79 50.368 217.086 51.04C216.414 51.68 215.774 52.224 215.166 52.672C214.59 53.12 214.142 53.344 213.822 53.344C213.086 53.344 212.478 53.056 211.998 52.48C211.518 51.904 211.278 51.168 211.278 50.272C211.278 49.344 211.31 48.544 211.374 47.872C211.47 47.168 211.614 46.432 211.806 45.664C211.998 44.96 212.142 44.368 212.238 43.888C212.366 43.408 212.462 42.992 212.526 42.64C212.622 42.288 212.686 41.984 212.718 41.728C212.75 41.472 212.782 41.216 212.814 40.96C212.558 41.088 212.222 41.36 211.806 41.776C211.39 42.16 210.958 42.624 210.51 43.168C210.062 43.68 209.614 44.208 209.166 44.752C208.718 45.296 208.35 45.76 208.062 46.144C207.454 46.976 206.926 47.712 206.478 48.352C206.03 48.992 205.598 49.6 205.182 50.176C204.798 50.752 204.414 51.344 204.03 51.952C203.646 52.528 203.198 53.152 202.686 53.824C201.662 53.504 200.926 53.024 200.478 52.384C200.062 51.744 199.854 50.96 199.854 50.032ZM229.842 48.928C229.842 47.52 230.178 45.552 230.85 43.024C231.522 40.464 232.466 37.488 233.682 34.096C235.666 28.688 237.522 24.192 239.25 20.608C241.01 16.992 242.722 14.176 244.386 12.16C244.77 12.224 245.234 12.384 245.778 12.64C246.354 12.896 246.914 13.184 247.458 13.504C248.002 13.792 248.482 14.096 248.898 14.416C249.346 14.736 249.634 14.992 249.762 15.184C247.266 18.128 245.074 21.296 243.186 24.688C241.298 28.08 239.57 31.968 238.002 36.352C236.658 40.128 235.634 43.536 234.93 46.576C234.226 49.584 233.874 52.096 233.874 54.112C233.874 54.656 233.874 54.992 233.874 55.12C233.874 55.248 233.89 55.376 233.922 55.504C233.474 55.44 233.09 55.328 232.77 55.168C232.45 55.008 232.242 54.816 232.146 54.592C232.082 54.432 231.906 54.192 231.618 53.872C231.33 53.584 231.074 53.36 230.85 53.2C230.562 53.008 230.322 52.512 230.13 51.712C229.938 50.88 229.842 49.952 229.842 48.928ZM258.231 32.128C258.103 34.112 257.751 35.824 257.175 37.264C256.599 38.672 255.767 39.92 254.679 41.008C253.623 42.064 252.327 43.024 250.791 43.888C249.255 44.752 247.463 45.584 245.415 46.384C245.415 46.576 245.399 46.784 245.367 47.008C245.367 47.2 245.367 47.408 245.367 47.632C245.367 48.048 245.399 48.48 245.463 48.928C245.527 49.376 245.639 49.792 245.799 50.176C245.959 50.56 246.183 50.88 246.471 51.136C246.759 51.36 247.127 51.472 247.575 51.472C248.439 51.472 249.287 51.28 250.119 50.896C250.951 50.512 251.735 50.048 252.471 49.504C253.239 48.928 253.943 48.32 254.583 47.68C255.255 47.008 255.847 46.4 256.359 45.856C256.679 46.144 256.951 46.416 257.175 46.672C255.735 48.592 254.151 50.192 252.423 51.472C250.727 52.72 249.111 53.52 247.575 53.872C245.367 53.616 243.639 52.816 242.391 51.472C241.175 50.096 240.567 48.448 240.567 46.528C240.567 45.216 240.743 43.888 241.095 42.544C241.479 41.168 241.991 39.856 242.631 38.608C243.303 37.328 244.071 36.128 244.935 35.008C245.831 33.888 246.775 32.912 247.767 32.08C248.791 31.248 249.831 30.592 250.887 30.112C251.975 29.632 253.047 29.392 254.103 29.392C255.575 29.584 256.951 30.496 258.231 32.128ZM254.919 33.712C254.055 33.84 253.159 34.192 252.231 34.768C251.303 35.344 250.423 36.112 249.591 37.072C248.791 38.032 248.055 39.152 247.383 40.432C246.711 41.712 246.183 43.088 245.799 44.56C248.359 43.28 250.487 41.712 252.183 39.856C253.879 37.968 254.791 35.92 254.919 33.712ZM270.917 29.584C271.557 29.584 272.293 29.776 273.125 30.16C273.957 30.544 274.693 31.04 275.333 31.648C275.173 30.368 274.965 29.168 274.709 28.048C274.485 26.896 274.133 25.712 273.653 24.496C273.205 23.28 272.597 21.952 271.829 20.512C271.061 19.072 270.101 17.424 268.949 15.568C269.045 15.28 269.253 14.944 269.573 14.56C269.925 14.176 270.309 13.824 270.725 13.504C271.173 13.152 271.621 12.848 272.069 12.592C272.549 12.336 272.997 12.176 273.413 12.112C274.309 13.104 275.157 14.352 275.957 15.856C276.757 17.328 277.461 18.928 278.069 20.656C278.677 22.352 279.141 24.112 279.461 25.936C279.813 27.76 279.989 29.504 279.989 31.168C279.989 32.832 279.797 34.544 279.413 36.304C279.061 38.064 278.549 39.792 277.877 41.488C277.237 43.152 276.485 44.736 275.621 46.24C274.757 47.744 273.813 49.088 272.789 50.272C271.797 51.456 270.757 52.416 269.669 53.152C268.581 53.92 267.493 54.4 266.405 54.592C264.197 54.336 262.501 53.616 261.317 52.432C260.165 51.28 259.589 49.68 259.589 47.632C259.589 46.544 259.749 45.36 260.069 44.08C260.421 42.8 260.869 41.536 261.413 40.288C261.989 39.008 262.645 37.776 263.381 36.592C264.149 35.376 264.949 34.288 265.781 33.328C266.645 32.368 267.509 31.552 268.373 30.88C269.237 30.208 270.085 29.776 270.917 29.584ZM266.021 52.672C267.141 52.288 268.261 51.44 269.381 50.128C270.501 48.816 271.509 47.28 272.405 45.52C273.301 43.728 274.021 41.824 274.565 39.808C275.141 37.76 275.429 35.792 275.429 33.904C275.429 33.36 275.429 33.024 275.429 32.896C275.429 32.768 275.413 32.64 275.381 32.512C274.613 32.832 273.797 33.376 272.933 34.144C272.069 34.912 271.205 35.808 270.341 36.832C269.477 37.824 268.661 38.912 267.893 40.096C267.125 41.28 266.437 42.464 265.829 43.648C265.221 44.832 264.741 45.968 264.389 47.056C264.037 48.144 263.861 49.104 263.861 49.936C263.861 51.536 264.581 52.448 266.021 52.672ZM271.522 66.304C271.522 66.112 271.586 65.936 271.714 65.776C271.842 65.616 271.986 65.456 272.146 65.296C272.53 65.648 272.866 65.92 273.154 66.112C273.41 66.304 273.666 66.464 273.922 66.592C274.146 66.72 274.386 66.8 274.642 66.832C274.898 66.864 275.202 66.88 275.554 66.88C277.219 66.88 278.803 66.432 280.307 65.536C281.811 64.672 283.219 63.408 284.531 61.744C285.875 60.08 287.091 58.048 288.179 55.648C289.267 53.248 290.227 50.528 291.059 47.488C290.675 47.872 290.195 48.304 289.619 48.784C289.075 49.232 288.499 49.664 287.891 50.08C287.283 50.496 286.675 50.88 286.067 51.232C285.491 51.584 284.995 51.84 284.579 52C284.035 51.904 283.523 51.68 283.043 51.328C282.595 50.944 282.195 50.48 281.843 49.936C281.491 49.392 281.219 48.784 281.027 48.112C280.835 47.408 280.739 46.672 280.739 45.904C280.739 44.656 280.963 43.376 281.411 42.064C281.891 40.752 282.515 39.472 283.283 38.224C284.051 36.944 284.947 35.744 285.971 34.624C287.027 33.504 288.131 32.528 289.283 31.696C290.467 30.864 291.651 30.208 292.835 29.728C294.051 29.216 295.235 28.96 296.387 28.96C297.507 28.96 298.339 29.2 298.883 29.68C299.459 30.128 299.875 30.912 300.131 32.032C299.779 31.84 299.331 31.744 298.787 31.744C298.019 31.744 297.123 32.048 296.099 32.656C295.107 33.264 294.083 34.064 293.027 35.056C292.003 36.016 290.979 37.136 289.955 38.416C288.931 39.664 288.019 40.944 287.219 42.256C286.451 43.568 285.811 44.848 285.299 46.096C284.819 47.344 284.579 48.464 284.579 49.456C284.579 49.68 284.595 49.824 284.627 49.888C284.659 49.92 284.707 49.936 284.771 49.936C285.059 49.936 285.443 49.776 285.923 49.456C286.435 49.136 286.995 48.736 287.603 48.256C288.243 47.744 288.899 47.168 289.571 46.528C290.243 45.856 290.883 45.184 291.491 44.512C292.867 42.976 294.115 41.264 295.235 39.376C296.387 37.456 297.299 35.6 297.971 33.808C298.835 33.872 299.603 34.016 300.275 34.24C300.947 34.464 301.411 34.704 301.667 34.96C300.579 37.456 299.699 39.552 299.027 41.248C298.387 42.944 297.827 44.448 297.347 45.76C296.483 48.064 295.667 50.16 294.899 52.048C294.163 53.968 293.395 55.728 292.595 57.328C291.827 58.96 290.979 60.464 290.051 61.84C289.155 63.248 288.131 64.592 286.979 65.872C286.435 66.48 285.811 67.008 285.107 67.456C284.435 67.936 283.731 68.336 282.995 68.656C282.291 68.976 281.587 69.216 280.883 69.376C280.211 69.536 279.587 69.616 279.011 69.616C278.243 69.616 277.459 69.52 276.659 69.328C275.858 69.168 275.122 68.928 274.45 68.608C273.746 68.32 273.138 67.968 272.626 67.552C272.114 67.168 271.746 66.752 271.522 66.304ZM320.012 32.128C319.884 34.112 319.532 35.824 318.956 37.264C318.38 38.672 317.548 39.92 316.46 41.008C315.404 42.064 314.108 43.024 312.572 43.888C311.036 44.752 309.244 45.584 307.196 46.384C307.196 46.576 307.18 46.784 307.148 47.008C307.148 47.2 307.148 47.408 307.148 47.632C307.148 48.048 307.18 48.48 307.244 48.928C307.308 49.376 307.42 49.792 307.58 50.176C307.74 50.56 307.964 50.88 308.252 51.136C308.54 51.36 308.908 51.472 309.356 51.472C310.22 51.472 311.068 51.28 311.9 50.896C312.732 50.512 313.516 50.048 314.252 49.504C315.02 48.928 315.724 48.32 316.364 47.68C317.036 47.008 317.628 46.4 318.14 45.856C318.46 46.144 318.732 46.416 318.956 46.672C317.516 48.592 315.932 50.192 314.204 51.472C312.508 52.72 310.892 53.52 309.356 53.872C307.148 53.616 305.42 52.816 304.172 51.472C302.956 50.096 302.348 48.448 302.348 46.528C302.348 45.216 302.524 43.888 302.876 42.544C303.26 41.168 303.772 39.856 304.412 38.608C305.084 37.328 305.852 36.128 306.716 35.008C307.612 33.888 308.556 32.912 309.548 32.08C310.572 31.248 311.612 30.592 312.668 30.112C313.756 29.632 314.828 29.392 315.884 29.392C317.356 29.584 318.732 30.496 320.012 32.128ZM316.7 33.712C315.836 33.84 314.94 34.192 314.012 34.768C313.084 35.344 312.204 36.112 311.372 37.072C310.572 38.032 309.836 39.152 309.164 40.432C308.492 41.712 307.964 43.088 307.58 44.56C310.14 43.28 312.268 41.712 313.964 39.856C315.66 37.968 316.572 35.92 316.7 33.712Z" fill="#FF6347"/>
<path d="M183.203 85.5781H184.885C185.268 85.5742 185.629 85.5156 185.969 85.4023C186.312 85.2891 186.613 85.125 186.871 84.9102C187.129 84.6953 187.332 84.4316 187.48 84.1191C187.633 83.8027 187.709 83.4395 187.709 83.0293C187.709 82.6191 187.633 82.2559 187.48 81.9395C187.332 81.623 187.129 81.3574 186.871 81.1426C186.613 80.9277 186.312 80.7637 185.969 80.6504C185.629 80.5371 185.268 80.4766 184.885 80.4688H182.119V89H183.203V85.5781ZM183.203 84.6875V81.3594H184.885C185.135 81.3633 185.365 81.4043 185.576 81.4824C185.791 81.5605 185.977 81.6719 186.133 81.8164C186.285 81.9609 186.404 82.1367 186.49 82.3438C186.58 82.5508 186.625 82.7832 186.625 83.041C186.625 83.2988 186.58 83.5293 186.49 83.7324C186.404 83.9316 186.283 84.1016 186.127 84.2422C185.971 84.3828 185.787 84.4922 185.576 84.5703C185.365 84.6445 185.135 84.6836 184.885 84.6875H183.203ZM192.051 85.5195L193.727 89H194.869L194.875 88.9297L193.064 85.2852C193.299 85.1836 193.514 85.0605 193.709 84.916C193.904 84.7715 194.072 84.6055 194.213 84.418C194.354 84.2305 194.463 84.0215 194.541 83.791C194.623 83.5605 194.664 83.3066 194.664 83.0293C194.664 82.5996 194.588 82.2266 194.436 81.9102C194.287 81.5898 194.082 81.3242 193.82 81.1133C193.555 80.9023 193.246 80.7441 192.895 80.6387C192.543 80.5332 192.168 80.4766 191.77 80.4688H189.268V89H190.346V85.5195H192.051ZM190.346 84.6289V81.3594H191.77C192.031 81.3633 192.271 81.4004 192.49 81.4707C192.713 81.541 192.904 81.6445 193.064 81.7812C193.225 81.9219 193.35 82.0957 193.439 82.3027C193.529 82.5059 193.574 82.7441 193.574 83.0176C193.574 83.2754 193.527 83.5039 193.434 83.7031C193.34 83.8984 193.213 84.0645 193.053 84.2012C192.889 84.3379 192.699 84.4434 192.484 84.5176C192.27 84.5879 192.041 84.625 191.799 84.6289H190.346ZM201.982 85.2266V84.2539C201.979 83.9492 201.951 83.6406 201.9 83.3281C201.854 83.0156 201.779 82.7148 201.678 82.4258C201.572 82.1367 201.439 81.8672 201.279 81.6172C201.123 81.3633 200.936 81.1426 200.717 80.9551C200.498 80.7676 200.246 80.6211 199.961 80.5156C199.676 80.4062 199.357 80.3516 199.006 80.3516C198.654 80.3516 198.336 80.4062 198.051 80.5156C197.77 80.6211 197.52 80.7676 197.301 80.9551C197.082 81.1465 196.893 81.3691 196.732 81.623C196.576 81.873 196.447 82.1426 196.346 82.4316C196.24 82.7207 196.162 83.0215 196.111 83.334C196.064 83.6426 196.039 83.9492 196.035 84.2539V85.2266C196.039 85.5312 196.066 85.8379 196.117 86.1465C196.168 86.4551 196.246 86.7539 196.352 87.043C196.453 87.332 196.584 87.6035 196.744 87.8574C196.904 88.1074 197.094 88.3262 197.312 88.5137C197.531 88.7012 197.781 88.8496 198.062 88.959C198.348 89.0645 198.666 89.1172 199.018 89.1172C199.369 89.1172 199.686 89.0645 199.967 88.959C200.252 88.8496 200.504 88.7012 200.723 88.5137C200.941 88.3262 201.129 88.1074 201.285 87.8574C201.445 87.6074 201.576 87.3379 201.678 87.0488C201.779 86.7598 201.854 86.4609 201.9 86.1523C201.951 85.8398 201.979 85.5312 201.982 85.2266ZM200.91 84.2422V85.2266C200.906 85.4297 200.893 85.6426 200.869 85.8652C200.85 86.0879 200.812 86.3066 200.758 86.5215C200.699 86.7402 200.623 86.9492 200.529 87.1484C200.439 87.3438 200.326 87.5156 200.189 87.6641C200.049 87.8164 199.881 87.9375 199.686 88.0273C199.494 88.1172 199.271 88.1621 199.018 88.1621C198.764 88.1621 198.541 88.1172 198.35 88.0273C198.158 87.9375 197.992 87.8164 197.852 87.6641C197.711 87.5156 197.594 87.3418 197.5 87.1426C197.406 86.9434 197.33 86.7344 197.271 86.5156C197.213 86.3008 197.17 86.082 197.143 85.8594C197.119 85.6367 197.105 85.4258 197.102 85.2266V84.2422C197.105 84.043 197.119 83.834 197.143 83.6152C197.17 83.3926 197.213 83.1719 197.271 82.9531C197.326 82.7383 197.4 82.5332 197.494 82.3379C197.588 82.1387 197.705 81.9629 197.846 81.8105C197.986 81.6621 198.152 81.543 198.344 81.4531C198.535 81.3633 198.756 81.3184 199.006 81.3184C199.26 81.3184 199.482 81.3633 199.674 81.4531C199.865 81.5391 200.031 81.6562 200.172 81.8047C200.312 81.957 200.43 82.1328 200.523 82.332C200.617 82.5273 200.693 82.7324 200.752 82.9473C200.807 83.166 200.846 83.3867 200.869 83.6094C200.893 83.8281 200.906 84.0391 200.91 84.2422ZM209.189 85.2266V84.2539C209.186 83.9492 209.158 83.6406 209.107 83.3281C209.061 83.0156 208.986 82.7148 208.885 82.4258C208.779 82.1367 208.646 81.8672 208.486 81.6172C208.33 81.3633 208.143 81.1426 207.924 80.9551C207.705 80.7676 207.453 80.6211 207.168 80.5156C206.883 80.4062 206.564 80.3516 206.213 80.3516C205.861 80.3516 205.543 80.4062 205.258 80.5156C204.977 80.6211 204.727 80.7676 204.508 80.9551C204.289 81.1465 204.1 81.3691 203.939 81.623C203.783 81.873 203.654 82.1426 203.553 82.4316C203.447 82.7207 203.369 83.0215 203.318 83.334C203.271 83.6426 203.246 83.9492 203.242 84.2539V85.2266C203.246 85.5312 203.273 85.8379 203.324 86.1465C203.375 86.4551 203.453 86.7539 203.559 87.043C203.66 87.332 203.791 87.6035 203.951 87.8574C204.111 88.1074 204.301 88.3262 204.52 88.5137C204.738 88.7012 204.988 88.8496 205.27 88.959C205.555 89.0645 205.873 89.1172 206.225 89.1172C206.576 89.1172 206.893 89.0645 207.174 88.959C207.459 88.8496 207.711 88.7012 207.93 88.5137C208.148 88.3262 208.336 88.1074 208.492 87.8574C208.652 87.6074 208.783 87.3379 208.885 87.0488C208.986 86.7598 209.061 86.4609 209.107 86.1523C209.158 85.8398 209.186 85.5312 209.189 85.2266ZM208.117 84.2422V85.2266C208.113 85.4297 208.1 85.6426 208.076 85.8652C208.057 86.0879 208.02 86.3066 207.965 86.5215C207.906 86.7402 207.83 86.9492 207.736 87.1484C207.646 87.3438 207.533 87.5156 207.396 87.6641C207.256 87.8164 207.088 87.9375 206.893 88.0273C206.701 88.1172 206.479 88.1621 206.225 88.1621C205.971 88.1621 205.748 88.1172 205.557 88.0273C205.365 87.9375 205.199 87.8164 205.059 87.6641C204.918 87.5156 204.801 87.3418 204.707 87.1426C204.613 86.9434 204.537 86.7344 204.479 86.5156C204.42 86.3008 204.377 86.082 204.35 85.8594C204.326 85.6367 204.312 85.4258 204.309 85.2266V84.2422C204.312 84.043 204.326 83.834 204.35 83.6152C204.377 83.3926 204.42 83.1719 204.479 82.9531C204.533 82.7383 204.607 82.5332 204.701 82.3379C204.795 82.1387 204.912 81.9629 205.053 81.8105C205.193 81.6621 205.359 81.543 205.551 81.4531C205.742 81.3633 205.963 81.3184 206.213 81.3184C206.467 81.3184 206.689 81.3633 206.881 81.4531C207.072 81.5391 207.238 81.6562 207.379 81.8047C207.52 81.957 207.637 82.1328 207.73 82.332C207.824 82.5273 207.9 82.7324 207.959 82.9473C208.014 83.166 208.053 83.3867 208.076 83.6094C208.1 83.8281 208.113 84.0391 208.117 84.2422ZM215.594 85.2324V84.3125H212.043V81.3945H216.186V80.4688H210.947V89H212.043V85.2324H215.594ZM230.811 85.2266V84.2539C230.807 83.9492 230.779 83.6406 230.729 83.3281C230.682 83.0156 230.607 82.7148 230.506 82.4258C230.4 82.1367 230.268 81.8672 230.107 81.6172C229.951 81.3633 229.764 81.1426 229.545 80.9551C229.326 80.7676 229.074 80.6211 228.789 80.5156C228.504 80.4062 228.186 80.3516 227.834 80.3516C227.482 80.3516 227.164 80.4062 226.879 80.5156C226.598 80.6211 226.348 80.7676 226.129 80.9551C225.91 81.1465 225.721 81.3691 225.561 81.623C225.404 81.873 225.275 82.1426 225.174 82.4316C225.068 82.7207 224.99 83.0215 224.939 83.334C224.893 83.6426 224.867 83.9492 224.863 84.2539V85.2266C224.867 85.5312 224.895 85.8379 224.945 86.1465C224.996 86.4551 225.074 86.7539 225.18 87.043C225.281 87.332 225.412 87.6035 225.572 87.8574C225.732 88.1074 225.922 88.3262 226.141 88.5137C226.359 88.7012 226.609 88.8496 226.891 88.959C227.176 89.0645 227.494 89.1172 227.846 89.1172C228.197 89.1172 228.514 89.0645 228.795 88.959C229.08 88.8496 229.332 88.7012 229.551 88.5137C229.77 88.3262 229.957 88.1074 230.113 87.8574C230.273 87.6074 230.404 87.3379 230.506 87.0488C230.607 86.7598 230.682 86.4609 230.729 86.1523C230.779 85.8398 230.807 85.5312 230.811 85.2266ZM229.738 84.2422V85.2266C229.734 85.4297 229.721 85.6426 229.697 85.8652C229.678 86.0879 229.641 86.3066 229.586 86.5215C229.527 86.7402 229.451 86.9492 229.357 87.1484C229.268 87.3438 229.154 87.5156 229.018 87.6641C228.877 87.8164 228.709 87.9375 228.514 88.0273C228.322 88.1172 228.1 88.1621 227.846 88.1621C227.592 88.1621 227.369 88.1172 227.178 88.0273C226.986 87.9375 226.82 87.8164 226.68 87.6641C226.539 87.5156 226.422 87.3418 226.328 87.1426C226.234 86.9434 226.158 86.7344 226.1 86.5156C226.041 86.3008 225.998 86.082 225.971 85.8594C225.947 85.6367 225.934 85.4258 225.93 85.2266V84.2422C225.934 84.043 225.947 83.834 225.971 83.6152C225.998 83.3926 226.041 83.1719 226.1 82.9531C226.154 82.7383 226.229 82.5332 226.322 82.3379C226.416 82.1387 226.533 81.9629 226.674 81.8105C226.814 81.6621 226.98 81.543 227.172 81.4531C227.363 81.3633 227.584 81.3184 227.834 81.3184C228.088 81.3184 228.311 81.3633 228.502 81.4531C228.693 81.5391 228.859 81.6562 229 81.8047C229.141 81.957 229.258 82.1328 229.352 82.332C229.445 82.5273 229.521 82.7324 229.58 82.9473C229.635 83.166 229.674 83.3867 229.697 83.6094C229.721 83.8281 229.734 84.0391 229.738 84.2422ZM237.215 85.2324V84.3125H233.664V81.3945H237.807V80.4688H232.568V89H233.664V85.2324H237.215ZM248.072 80.4688H246.73V89H247.785V85.5957L247.697 82.1562L249.145 86.627H249.766L251.342 82.0332L251.254 85.5957V89H252.309V80.4688H250.961L249.461 84.7344L248.072 80.4688ZM258.783 85.0566V84.1367H255.221V81.3945H259.322V80.4688H254.137V89H259.375V88.0801H255.221V85.0566H258.783ZM262.486 80.4688H261.145V89H262.199V85.5957L262.111 82.1562L263.559 86.627H264.18L265.756 82.0332L265.668 85.5957V89H266.723V80.4688H265.375L263.875 84.7344L262.486 80.4688ZM268.492 89H271.223C271.586 88.9961 271.938 88.9395 272.277 88.8301C272.621 88.7207 272.924 88.5625 273.186 88.3555C273.447 88.1523 273.656 87.8984 273.812 87.5938C273.969 87.2891 274.045 86.9375 274.041 86.5391C274.041 86.2852 274.002 86.0488 273.924 85.8301C273.85 85.6113 273.744 85.4141 273.607 85.2383C273.479 85.0781 273.314 84.9316 273.115 84.7988C272.916 84.666 272.709 84.5742 272.494 84.5234V84.5059C272.701 84.416 272.877 84.3203 273.021 84.2188C273.17 84.1172 273.305 83.9922 273.426 83.8438C273.543 83.6992 273.635 83.5352 273.701 83.3516C273.771 83.168 273.809 82.9648 273.812 82.7422C273.816 82.3438 273.74 82.002 273.584 81.7168C273.428 81.4316 273.219 81.1973 272.957 81.0137C272.695 80.8301 272.396 80.6953 272.061 80.6094C271.725 80.5195 271.381 80.4727 271.029 80.4688H268.492V89ZM269.582 85.0098H271.311C271.541 85.0176 271.756 85.0566 271.955 85.127C272.154 85.1973 272.328 85.2969 272.477 85.4258C272.625 85.5586 272.74 85.7188 272.822 85.9062C272.908 86.0938 272.949 86.3086 272.945 86.5508C272.945 86.7891 272.898 87.002 272.805 87.1895C272.715 87.377 272.592 87.5352 272.436 87.6641C272.279 87.793 272.1 87.8945 271.896 87.9688C271.693 88.0391 271.479 88.0762 271.252 88.0801H269.582V85.0098ZM269.582 84.1074V81.3945H271.064C271.275 81.3984 271.48 81.4258 271.68 81.4766C271.883 81.5273 272.062 81.6055 272.219 81.7109C272.371 81.8203 272.492 81.959 272.582 82.127C272.676 82.2949 272.723 82.498 272.723 82.7363C272.723 82.959 272.676 83.1543 272.582 83.3223C272.488 83.4902 272.365 83.6309 272.213 83.7441C272.061 83.8613 271.887 83.9512 271.691 84.0137C271.496 84.0723 271.297 84.1035 271.094 84.1074H269.582ZM280.404 85.0566V84.1367H276.842V81.3945H280.943V80.4688H275.758V89H280.996V88.0801H276.842V85.0566H280.404ZM285.742 85.5195L287.418 89H288.561L288.566 88.9297L286.756 85.2852C286.99 85.1836 287.205 85.0605 287.4 84.916C287.596 84.7715 287.764 84.6055 287.904 84.418C288.045 84.2305 288.154 84.0215 288.232 83.791C288.314 83.5605 288.355 83.3066 288.355 83.0293C288.355 82.5996 288.279 82.2266 288.127 81.9102C287.979 81.5898 287.773 81.3242 287.512 81.1133C287.246 80.9023 286.938 80.7441 286.586 80.6387C286.234 80.5332 285.859 80.4766 285.461 80.4688H282.959V89H284.037V85.5195H285.742ZM284.037 84.6289V81.3594H285.461C285.723 81.3633 285.963 81.4004 286.182 81.4707C286.404 81.541 286.596 81.6445 286.756 81.7812C286.916 81.9219 287.041 82.0957 287.131 82.3027C287.221 82.5059 287.266 82.7441 287.266 83.0176C287.266 83.2754 287.219 83.5039 287.125 83.7031C287.031 83.8984 286.904 84.0645 286.744 84.2012C286.58 84.3379 286.391 84.4434 286.176 84.5176C285.961 84.5879 285.732 84.625 285.49 84.6289H284.037ZM294.59 86.8438C294.59 87.0781 294.539 87.2812 294.438 87.4531C294.336 87.6211 294.205 87.7598 294.045 87.8691C293.885 87.9824 293.701 88.0664 293.494 88.1211C293.291 88.1719 293.084 88.1973 292.873 88.1973C292.607 88.1973 292.361 88.1621 292.135 88.0918C291.912 88.0176 291.715 87.9082 291.543 87.7637C291.371 87.623 291.23 87.4512 291.121 87.248C291.012 87.041 290.939 86.8047 290.904 86.5391H289.797C289.809 86.9062 289.889 87.2402 290.037 87.541C290.189 87.8379 290.395 88.0977 290.652 88.3203C290.941 88.5781 291.281 88.7754 291.672 88.9121C292.066 89.0488 292.467 89.1172 292.873 89.1172C293.213 89.1172 293.553 89.0703 293.893 88.9766C294.232 88.8789 294.537 88.7344 294.807 88.543C295.076 88.3555 295.295 88.1191 295.463 87.834C295.635 87.5488 295.721 87.2148 295.721 86.832C295.721 86.4531 295.641 86.1191 295.48 85.8301C295.324 85.541 295.117 85.2969 294.859 85.0977C294.598 84.8828 294.309 84.707 293.992 84.5703C293.676 84.4297 293.359 84.3105 293.043 84.2129C292.852 84.1543 292.646 84.0859 292.428 84.0078C292.213 83.9297 292.014 83.832 291.83 83.7148C291.643 83.5977 291.488 83.4551 291.367 83.2871C291.246 83.1152 291.184 82.9062 291.18 82.6602C291.18 82.4336 291.225 82.2344 291.314 82.0625C291.408 81.8906 291.533 81.7461 291.689 81.6289C291.842 81.5117 292.016 81.4238 292.211 81.3652C292.41 81.3066 292.613 81.2773 292.82 81.2773C293.078 81.2773 293.309 81.3184 293.512 81.4004C293.719 81.4785 293.896 81.5898 294.045 81.7344C294.193 81.8789 294.312 82.0527 294.402 82.2559C294.492 82.4551 294.553 82.6777 294.584 82.9238H295.697C295.689 82.5332 295.605 82.1797 295.445 81.8633C295.285 81.5469 295.072 81.2773 294.807 81.0547C294.541 80.832 294.236 80.6602 293.893 80.5391C293.549 80.4141 293.191 80.3516 292.82 80.3516C292.484 80.3516 292.15 80.4043 291.818 80.5098C291.486 80.6113 291.189 80.7617 290.928 80.9609C290.666 81.1602 290.453 81.4043 290.289 81.6934C290.129 81.9824 290.049 82.3105 290.049 82.6777C290.049 83.0449 290.129 83.3652 290.289 83.6387C290.453 83.9082 290.664 84.1426 290.922 84.3418C291.176 84.5371 291.457 84.7051 291.766 84.8457C292.078 84.9824 292.385 85.0996 292.686 85.1973C292.893 85.2637 293.107 85.3379 293.33 85.4199C293.557 85.502 293.764 85.6035 293.951 85.7246C294.139 85.8496 294.291 86.002 294.408 86.1816C294.529 86.3613 294.59 86.582 294.59 86.8438ZM302.682 89V80.4688H301.656V84.1367H298.158V80.4688H297.139V89H298.158V85.0566H301.656V89H302.682ZM304.539 80.4688V81.4121H306.537V88.0625H304.539V89H309.695V88.0625H307.65V81.4121H309.695V80.4688H304.539ZM312.93 85.5781H314.611C314.994 85.5742 315.355 85.5156 315.695 85.4023C316.039 85.2891 316.34 85.125 316.598 84.9102C316.855 84.6953 317.059 84.4316 317.207 84.1191C317.359 83.8027 317.436 83.4395 317.436 83.0293C317.436 82.6191 317.359 82.2559 317.207 81.9395C317.059 81.623 316.855 81.3574 316.598 81.1426C316.34 80.9277 316.039 80.7637 315.695 80.6504C315.355 80.5371 314.994 80.4766 314.611 80.4688H311.846V89H312.93V85.5781ZM312.93 84.6875V81.3594H314.611C314.861 81.3633 315.092 81.4043 315.303 81.4824C315.518 81.5605 315.703 81.6719 315.859 81.8164C316.012 81.9609 316.131 82.1367 316.217 82.3438C316.307 82.5508 316.352 82.7832 316.352 83.041C316.352 83.2988 316.307 83.5293 316.217 83.7324C316.131 83.9316 316.01 84.1016 315.854 84.2422C315.697 84.3828 315.514 84.4922 315.303 84.5703C315.092 84.6445 314.861 84.6836 314.611 84.6875H312.93Z" fill="#121212"/>
</svg>
